<svg id="wave" style="transform:rotate(180deg); transition: 0.3s" viewBox="0 0 1440 490" version="1.1" xmlns="http://www.w3.org/2000/svg"><defs><linearGradient id="sw-gradient-0" x1="0" x2="0" y1="1" y2="0"><stop stop-color="rgba(9, 121, 105, 1)" offset="0%"></stop><stop stop-color="rgba(11, 255, 221.939, 1)" offset="100%"></stop></linearGradient></defs><path style="transform:translate(0, 0px); opacity:1" fill="url(#sw-gradient-0)" d="M0,294L48,310.3C96,327,192,359,288,383.8C384,408,480,425,576,416.5C672,408,768,376,864,302.2C960,229,1056,114,1152,57.2C1248,0,1344,0,1440,49C1536,98,1632,196,1728,236.8C1824,278,1920,261,2016,261.3C2112,261,2208,278,2304,285.8C2400,294,2496,294,2592,245C2688,196,2784,98,2880,81.7C2976,65,3072,131,3168,171.5C3264,212,3360,229,3456,261.3C3552,294,3648,343,3744,375.7C3840,408,3936,425,4032,424.7C4128,425,4224,408,4320,392C4416,376,4512,359,4608,294C4704,229,4800,114,4896,73.5C4992,33,5088,65,5184,73.5C5280,82,5376,65,5472,114.3C5568,163,5664,278,5760,343C5856,408,5952,425,6048,424.7C6144,425,6240,408,6336,367.5C6432,327,6528,261,6624,204.2C6720,147,6816,98,6864,73.5L6912,49L6912,490L6864,490C6816,490,6720,490,6624,490C6528,490,6432,490,6336,490C6240,490,6144,490,6048,490C5952,490,5856,490,5760,490C5664,490,5568,490,5472,490C5376,490,5280,490,5184,490C5088,490,4992,490,4896,490C4800,490,4704,490,4608,490C4512,490,4416,490,4320,490C4224,490,4128,490,4032,490C3936,490,3840,490,3744,490C3648,490,3552,490,3456,490C3360,490,3264,490,3168,490C3072,490,2976,490,2880,490C2784,490,2688,490,2592,490C2496,490,2400,490,2304,490C2208,490,2112,490,2016,490C1920,490,1824,490,1728,490C1632,490,1536,490,1440,490C1344,490,1248,490,1152,490C1056,490,960,490,864,490C768,490,672,490,576,490C480,490,384,490,288,490C192,490,96,490,48,490L0,490Z"></path></svg>